<?xml version="1.0" encoding="UTF-8" standalone="no"?>
<!DOCTYPE svg PUBLIC "-//W3C//DTD SVG 1.1//EN" "http://www.w3.org/Graphics/SVG/1.1/DTD/svg11.dtd">
<svg xmlns="http://www.w3.org/2000/svg" version="1.1" viewBox="0.00 0.00 201.00 78.00">
<g stroke-width="2.00" fill="none" stroke-linecap="butt">
<path stroke="#c56600" stroke-opacity="0.557" vector-effect="non-scaling-stroke" d="
  M 1.29 0.79
  L 1.28 12.93"
/>
<path stroke="#e88f01" stroke-opacity="0.557" vector-effect="non-scaling-stroke" d="
  M 1.28 12.93
  L 1.27 18.16"
/>
<path stroke="#c56600" stroke-opacity="0.557" vector-effect="non-scaling-stroke" d="
  M 1.27 18.16
  L 1.27 59.65"
/>
<path stroke="#e88f01" stroke-opacity="0.557" vector-effect="non-scaling-stroke" d="
  M 1.27 59.65
  L 1.28 64.15"
/>
<path stroke="#c56600" stroke-opacity="0.557" vector-effect="non-scaling-stroke" d="
  M 1.28 64.15
  L 1.25 76.43
  Q 1.25 77.01 1.83 77.01
  L 2.20 77.01"
/>
<path stroke="#b85f00" stroke-opacity="0.635" vector-effect="non-scaling-stroke" d="
  M 2.20 77.01
  L 12.55 76.98"
/>
<path stroke="#d78301" stroke-opacity="0.635" vector-effect="non-scaling-stroke" d="
  M 12.55 76.98
  L 18.78 76.99"
/>
<path stroke="#b85f00" stroke-opacity="0.635" vector-effect="non-scaling-stroke" d="
  M 18.78 76.99
  L 182.52 76.99"
/>
<path stroke="#d78301" stroke-opacity="0.635" vector-effect="non-scaling-stroke" d="
  M 182.52 76.99
  L 188.73 76.97"
/>
<path stroke="#b85f00" stroke-opacity="0.635" vector-effect="non-scaling-stroke" d="
  M 188.73 76.97
  L 199.66 76.98
  Q 200.14 76.98 200.14 76.49
  L 200.12 65.28"
/>
<path stroke="#d78301" stroke-opacity="0.635" vector-effect="non-scaling-stroke" d="
  M 200.12 65.28
  L 200.10 59.21"
/>
<path stroke="#b85f00" stroke-opacity="0.635" vector-effect="non-scaling-stroke" d="
  M 200.10 59.21
  L 200.08 18.56"
/>
<path stroke="#d78301" stroke-opacity="0.635" vector-effect="non-scaling-stroke" d="
  M 200.08 18.56
  L 200.07 12.49"
/>
<path stroke="#b85f00" stroke-opacity="0.635" vector-effect="non-scaling-stroke" d="
  M 200.07 12.49
  L 200.07 1.48
  Q 200.07 0.89 199.49 0.89
  L 188.70 0.85"
/>
<path stroke="#d78301" stroke-opacity="0.635" vector-effect="non-scaling-stroke" d="
  M 188.70 0.85
  L 182.53 0.76"
/>
<path stroke="#b85f00" stroke-opacity="0.635" vector-effect="non-scaling-stroke" d="
  M 182.53 0.76
  L 18.96 0.77"
/>
<path stroke="#d78301" stroke-opacity="0.635" vector-effect="non-scaling-stroke" d="
  M 18.96 0.77
  L 12.70 0.81"
/>
<path stroke="#b85f00" stroke-opacity="0.635" vector-effect="non-scaling-stroke" d="
  M 12.70 0.81
  L 1.29 0.79"
/>
<path stroke="#ec8601" vector-effect="non-scaling-stroke" d="
  M 12.70 0.81
  L 12.84 6.18
  A 0.58 0.58 0.0 0 1 12.26 6.77
  L 7.65 6.72
  Q 7.03 6.72 7.02 7.34
  L 6.98 11.99
  Q 6.97 12.62 6.35 12.66
  L 1.28 12.93"
/>
<path stroke="#ec8601" vector-effect="non-scaling-stroke" d="
  M 18.96 0.77
  L 18.84 6.76"
/>
<path stroke="#ffb102" vector-effect="non-scaling-stroke" d="
  M 18.84 6.76
  L 18.74 17.99
  Q 18.74 18.51 19.25 18.50
  L 23.99 18.48
  Q 24.50 18.47 24.51 18.99
  L 24.51 23.77
  Q 24.51 24.30 23.98 24.30
  L 19.08 24.33
  Q 18.58 24.33 18.59 23.83
  L 18.74 19.05
  A 0.50 0.50 0.0 0 0 18.25 18.54
  L 6.99 18.43"
/>
<path stroke="#ec8601" vector-effect="non-scaling-stroke" d="
  M 6.99 18.43
  L 1.27 18.16"
/>
<path stroke="#ec8601" vector-effect="non-scaling-stroke" d="
  M 182.53 0.76
  L 182.47 6.76"
/>
<path stroke="#ec9a02" vector-effect="non-scaling-stroke" d="
  M 182.47 6.76
  L 18.84 6.76"
/>
<path stroke="#ec8601" vector-effect="non-scaling-stroke" d="
  M 188.70 0.85
  L 188.57 6.15
  Q 188.56 6.80 189.20 6.79
  L 194.06 6.72
  A 0.59 0.59 0.0 0 1 194.66 7.31
  L 194.70 12.07
  Q 194.71 12.66 195.30 12.64
  L 200.07 12.49"
/>
<path stroke="#ec8601" vector-effect="non-scaling-stroke" d="
  M 200.08 18.56
  L 194.67 18.63"
/>
<path stroke="#ffb102" vector-effect="non-scaling-stroke" d="
  M 194.67 18.63
  L 183.22 18.46
  Q 182.65 18.45 182.64 17.87
  L 182.47 6.76"
/>
<path stroke="#ec9a02" vector-effect="non-scaling-stroke" d="
  M 194.67 18.63
  L 194.65 58.51"
/>
<path stroke="#ffb102" vector-effect="non-scaling-stroke" d="
  M 194.65 58.51
  L 194.60 58.98
  Q 194.54 59.50 194.03 59.50
  L 183.26 59.51
  Q 182.73 59.51 182.72 60.04
  L 182.64 71.30"
/>
<path stroke="#ec9a02" vector-effect="non-scaling-stroke" d="
  M 182.64 71.30
  L 18.80 71.31"
/>
<path stroke="#ffb102" vector-effect="non-scaling-stroke" d="
  M 18.80 71.31
  L 18.70 60.27
  Q 18.70 59.68 18.10 59.68
  L 7.00 59.67"
/>
<path stroke="#ec9a02" vector-effect="non-scaling-stroke" d="
  M 7.00 59.67
  L 6.99 18.43"
/>
<path stroke="#ffb102" vector-effect="non-scaling-stroke" d="
  M 182.7059 19.0548
  A 0.55 0.55 0.0 0 0 182.1549 18.5058
  L 177.2949 18.5142
  A 0.55 0.55 0.0 0 0 176.7459 19.0652
  L 176.7541 23.7652
  A 0.55 0.55 0.0 0 0 177.3051 24.3142
  L 182.1651 24.3058
  A 0.55 0.55 0.0 0 0 182.7141 23.7548
  L 182.7059 19.0548"
/>
<path stroke="#ffb102" vector-effect="non-scaling-stroke" d="
  M 24.51 53.91
  A 0.41 0.41 0.0 0 0 24.10 53.50
  L 19.08 53.50
  A 0.41 0.41 0.0 0 0 18.67 53.91
  L 18.67 59.07
  A 0.41 0.41 0.0 0 0 19.08 59.48
  L 24.10 59.48
  A 0.41 0.41 0.0 0 0 24.51 59.07
  L 24.51 53.91"
/>
<path stroke="#ffb102" vector-effect="non-scaling-stroke" d="
  M 182.7030 54.0156
  A 0.51 0.51 0.0 0 0 182.1957 53.5029
  L 177.2757 53.4772
  A 0.51 0.51 0.0 0 0 176.7631 53.9845
  L 176.7370 58.9644
  A 0.51 0.51 0.0 0 0 177.2443 59.4771
  L 182.1643 59.5028
  A 0.51 0.51 0.0 0 0 182.6769 58.9955
  L 182.7030 54.0156"
/>
<path stroke="#ec8601" vector-effect="non-scaling-stroke" d="
  M 7.00 59.67
  L 1.27 59.65"
/>
<path stroke="#ec8601" vector-effect="non-scaling-stroke" d="
  M 200.10 59.21
  Q 194.98 60.27 194.65 58.51"
/>
<path stroke="#ec8601" vector-effect="non-scaling-stroke" d="
  M 200.12 65.28
  L 195.23 65.41
  Q 194.66 65.43 194.67 65.99
  L 194.71 70.75
  Q 194.72 71.34 194.12 71.34
  L 189.00 71.30
  Q 188.54 71.29 188.55 71.75
  L 188.73 76.97"
/>
<path stroke="#ec8601" vector-effect="non-scaling-stroke" d="
  M 182.52 76.99
  L 182.64 71.30"
/>
<path stroke="#ec8601" vector-effect="non-scaling-stroke" d="
  M 18.80 71.31
  L 18.78 76.99"
/>
<path stroke="#ec8601" vector-effect="non-scaling-stroke" d="
  M 12.55 76.98
  L 12.96 72.30
  Q 13.05 71.29 12.03 71.30
  L 7.56 71.35
  A 0.55 0.55 0.0 0 1 7.01 70.81
  L 6.97 65.79
  A 0.49 0.48 83.3 0 0 6.38 65.32
  Q 2.63 66.18 1.28 64.15"
/>
</g>
<path fill="#1e1401" fill-opacity="0.114" d="
  M 0.00 0.00
  L 0.87 0.00
  Q 1.22 0.47 1.29 0.79
  L 1.28 12.93
  L 1.27 18.16
  L 1.27 59.65
  L 1.28 64.15
  L 1.25 76.43
  Q 1.25 77.01 1.83 77.01
  L 2.20 77.01
  Q 2.42 77.54 1.87 78.00
  L 0.00 78.00
  L 0.00 0.00
  Z"
/>
<path fill="#432301" fill-opacity="0.271" d="
  M 0.87 0.00
  L 201.00 0.00
  L 201.00 78.00
  L 1.87 78.00
  Q 2.42 77.54 2.20 77.01
  L 12.55 76.98
  L 18.78 76.99
  L 182.52 76.99
  L 188.73 76.97
  L 199.66 76.98
  Q 200.14 76.98 200.14 76.49
  L 200.12 65.28
  L 200.10 59.21
  L 200.08 18.56
  L 200.07 12.49
  L 200.07 1.48
  Q 200.07 0.89 199.49 0.89
  L 188.70 0.85
  L 182.53 0.76
  L 18.96 0.77
  L 12.70 0.81
  L 1.29 0.79
  Q 1.22 0.47 0.87 0.00
  Z"
/>
<path fill="#d86f00" d="
  M 1.29 0.79
  L 12.70 0.81
  L 12.84 6.18
  A 0.58 0.58 0.0 0 1 12.26 6.77
  L 7.65 6.72
  Q 7.03 6.72 7.02 7.34
  L 6.98 11.99
  Q 6.97 12.62 6.35 12.66
  L 1.28 12.93
  L 1.29 0.79
  Z"
/>
<path fill="#ff9d01" d="
  M 12.70 0.81
  L 18.96 0.77
  L 18.84 6.76
  L 18.74 17.99
  Q 18.74 18.51 19.25 18.50
  L 23.99 18.48
  Q 24.50 18.47 24.51 18.99
  L 24.51 23.77
  Q 24.51 24.30 23.98 24.30
  L 19.08 24.33
  Q 18.58 24.33 18.59 23.83
  L 18.74 19.05
  A 0.50 0.50 0.0 0 0 18.25 18.54
  L 6.99 18.43
  L 1.27 18.16
  L 1.28 12.93
  L 6.35 12.66
  Q 6.97 12.62 6.98 11.99
  L 7.02 7.34
  Q 7.03 6.72 7.65 6.72
  L 12.26 6.77
  A 0.58 0.58 0.0 0 0 12.84 6.18
  L 12.70 0.81
  Z"
/>
<path fill="#d86f00" d="
  M 18.96 0.77
  L 182.53 0.76
  L 182.47 6.76
  L 18.84 6.76
  L 18.96 0.77
  Z"
/>
<path fill="#ff9d01" d="
  M 182.53 0.76
  L 188.70 0.85
  L 188.57 6.15
  Q 188.56 6.80 189.20 6.79
  L 194.06 6.72
  A 0.59 0.59 0.0 0 1 194.66 7.31
  L 194.70 12.07
  Q 194.71 12.66 195.30 12.64
  L 200.07 12.49
  L 200.08 18.56
  L 194.67 18.63
  L 183.22 18.46
  Q 182.65 18.45 182.64 17.87
  L 182.47 6.76
  L 182.53 0.76
  Z"
/>
<path fill="#d86f00" d="
  M 188.70 0.85
  L 199.49 0.89
  Q 200.07 0.89 200.07 1.48
  L 200.07 12.49
  L 195.30 12.64
  Q 194.71 12.66 194.70 12.07
  L 194.66 7.31
  A 0.59 0.59 0.0 0 0 194.06 6.72
  L 189.20 6.79
  Q 188.56 6.80 188.57 6.15
  L 188.70 0.85
  Z"
/>
<path fill="#ffc403" d="
  M 18.84 6.76
  L 182.47 6.76
  L 182.64 17.87
  Q 182.65 18.45 183.22 18.46
  L 194.67 18.63
  L 194.65 58.51
  L 194.60 58.98
  Q 194.54 59.50 194.03 59.50
  L 183.26 59.51
  Q 182.73 59.51 182.72 60.04
  L 182.64 71.30
  L 18.80 71.31
  L 18.70 60.27
  Q 18.70 59.68 18.10 59.68
  L 7.00 59.67
  L 6.99 18.43
  L 18.25 18.54
  A 0.50 0.50 0.0 0 1 18.74 19.05
  L 18.59 23.83
  Q 18.58 24.33 19.08 24.33
  L 23.98 24.30
  Q 24.51 24.30 24.51 23.77
  L 24.51 18.99
  Q 24.50 18.47 23.99 18.48
  L 19.25 18.50
  Q 18.74 18.51 18.74 17.99
  L 18.84 6.76
  Z
  M 182.7059 19.0548
  A 0.55 0.55 0.0 0 0 182.1549 18.5058
  L 177.2949 18.5142
  A 0.55 0.55 0.0 0 0 176.7459 19.0652
  L 176.7541 23.7652
  A 0.55 0.55 0.0 0 0 177.3051 24.3142
  L 182.1651 24.3058
  A 0.55 0.55 0.0 0 0 182.7141 23.7548
  L 182.7059 19.0548
  Z
  M 24.51 53.91
  A 0.41 0.41 0.0 0 0 24.10 53.50
  L 19.08 53.50
  A 0.41 0.41 0.0 0 0 18.67 53.91
  L 18.67 59.07
  A 0.41 0.41 0.0 0 0 19.08 59.48
  L 24.10 59.48
  A 0.41 0.41 0.0 0 0 24.51 59.07
  L 24.51 53.91
  Z
  M 182.7030 54.0156
  A 0.51 0.51 0.0 0 0 182.1957 53.5029
  L 177.2757 53.4772
  A 0.51 0.51 0.0 0 0 176.7631 53.9845
  L 176.7370 58.9644
  A 0.51 0.51 0.0 0 0 177.2443 59.4771
  L 182.1643 59.5028
  A 0.51 0.51 0.0 0 0 182.6769 58.9955
  L 182.7030 54.0156
  Z"
/>
<path fill="#d86f00" d="
  M 1.27 18.16
  L 6.99 18.43
  L 7.00 59.67
  L 1.27 59.65
  L 1.27 18.16
  Z"
/>
<rect fill="#ff9d01" x="-2.98" y="-2.90" transform="translate(179.73,21.41) rotate(-0.1)" width="5.96" height="5.80" rx="0.55"/>
<path fill="#d86f00" d="
  M 200.08 18.56
  L 200.10 59.21
  Q 194.98 60.27 194.65 58.51
  L 194.67 18.63
  L 200.08 18.56
  Z"
/>
<rect fill="#ff9d01" x="18.67" y="53.50" width="5.84" height="5.98" rx="0.41"/>
<rect fill="#ff9d01" x="-2.97" y="-3.00" transform="translate(179.72,56.49) rotate(0.3)" width="5.94" height="6.00" rx="0.51"/>
<path fill="#ff9d01" d="
  M 194.65 58.51
  Q 194.98 60.27 200.10 59.21
  L 200.12 65.28
  L 195.23 65.41
  Q 194.66 65.43 194.67 65.99
  L 194.71 70.75
  Q 194.72 71.34 194.12 71.34
  L 189.00 71.30
  Q 188.54 71.29 188.55 71.75
  L 188.73 76.97
  L 182.52 76.99
  L 182.64 71.30
  L 182.72 60.04
  Q 182.73 59.51 183.26 59.51
  L 194.03 59.50
  Q 194.54 59.50 194.60 58.98
  L 194.65 58.51
  Z"
/>
<path fill="#ff9d01" d="
  M 7.00 59.67
  L 18.10 59.68
  Q 18.70 59.68 18.70 60.27
  L 18.80 71.31
  L 18.78 76.99
  L 12.55 76.98
  L 12.96 72.30
  Q 13.05 71.29 12.03 71.30
  L 7.56 71.35
  A 0.55 0.55 0.0 0 1 7.01 70.81
  L 6.97 65.79
  A 0.49 0.48 83.3 0 0 6.38 65.32
  Q 2.63 66.18 1.28 64.15
  L 1.27 59.65
  L 7.00 59.67
  Z"
/>
<path fill="#d86f00" d="
  M 1.28 64.15
  Q 2.63 66.18 6.38 65.32
  A 0.49 0.48 83.3 0 1 6.97 65.79
  L 7.01 70.81
  A 0.55 0.55 0.0 0 0 7.56 71.35
  L 12.03 71.30
  Q 13.05 71.29 12.96 72.30
  L 12.55 76.98
  L 2.20 77.01
  L 1.83 77.01
  Q 1.25 77.01 1.25 76.43
  L 1.28 64.15
  Z"
/>
<path fill="#d86f00" d="
  M 200.12 65.28
  L 200.14 76.49
  Q 200.14 76.98 199.66 76.98
  L 188.73 76.97
  L 188.55 71.75
  Q 188.54 71.29 189.00 71.30
  L 194.12 71.34
  Q 194.72 71.34 194.71 70.75
  L 194.67 65.99
  Q 194.66 65.43 195.23 65.41
  L 200.12 65.28
  Z"
/>
<path fill="#d86f00" d="
  M 18.80 71.31
  L 182.64 71.30
  L 182.52 76.99
  L 18.78 76.99
  L 18.80 71.31
  Z"
/>
</svg>
